<?xml version="1.0" standalone="no"?>
<!DOCTYPE svg PUBLIC "-//W3C//DTD SVG 20010904//EN"
 "http://www.w3.org/TR/2001/REC-SVG-20010904/DTD/svg10.dtd">
<svg version="1.0" xmlns="http://www.w3.org/2000/svg"
 width="900.000000pt" height="1362.000000pt" viewBox="0 0 900.000000 1362.000000"
 preserveAspectRatio="xMidYMid meet">
<metadata>
Created by potrace 1.10, written by Peter Selinger 2001-2011
</metadata>
<g transform="translate(0.000000,1362.000000) scale(0.100000,-0.100000)"
fill="#ffffff" stroke="none">
<path d="M5245 12790 c-58 -9 -142 -32 -200 -53 -77 -28 -222 -106 -251 -135
-16 -16 -41 -35 -55 -43 -55 -29 -210 -212 -266 -313 -38 -69 -73 -149 -73
-167 0 -11 -9 -41 -19 -67 -28 -69 -36 -138 -35 -312 0 -109 5 -173 17 -215 9
-33 22 -85 30 -117 8 -31 26 -78 40 -105 14 -26 32 -64 41 -83 9 -19 30 -53
47 -75 16 -22 41 -57 54 -77 14 -21 29 -38 34 -38 15 0 73 -91 67 -105 -3 -10
-238 -13 -1078 -17 -2498 -11 -3083 -16 -3118 -27 -49 -15 -105 -76 -126 -136
-16 -46 -16 -139 -10 -1310 7 -1380 13 -1867 22 -1992 6 -80 6 -82 59 -145 57
-67 93 -105 250 -256 126 -122 242 -248 263 -287 15 -26 17 -72 20 -320 2
-159 7 -333 10 -385 4 -52 7 -562 7 -1132 0 -813 -3 -1040 -12 -1049 -9 -9
-69 -14 -210 -16 -109 -1 -212 -5 -230 -8 -44 -8 -133 -96 -144 -144 -5 -20
-9 -127 -9 -239 0 -233 2 -242 79 -317 l52 -50 627 1 c1534 4 3442 13 3937 19
296 3 554 4 571 0 25 -4 37 -15 53 -46 20 -37 21 -56 21 -290 0 -318 7 -303
-144 -313 -180 -11 -262 -52 -387 -192 -61 -69 -89 -185 -71 -301 24 -149 67
-202 488 -598 82 -77 185 -176 229 -220 44 -44 114 -111 155 -148 101 -91 121
-110 150 -144 41 -45 468 -448 511 -481 32 -26 161 -86 214 -101 73 -20 184
-14 243 14 30 14 58 25 63 25 35 0 152 101 359 309 259 260 290 303 290 398 0
90 -37 147 -133 207 -58 36 -91 45 -102 26 -4 -6 -15 -8 -26 -5 -11 4 -42 -4
-73 -18 -42 -20 -98 -68 -243 -210 -103 -102 -200 -195 -215 -206 -53 -42
-127 -22 -193 53 -16 18 -77 78 -135 132 -130 121 -314 297 -578 552 -334 323
-354 345 -350 375 4 26 32 35 119 36 126 2 172 17 242 81 102 94 98 62 97 711
-1 604 1 636 50 649 37 10 1289 21 1330 12 63 -14 63 -16 67 -502 6 -635 11
-717 51 -782 26 -43 102 -114 128 -121 72 -20 131 -29 162 -23 44 7 119 -17
114 -36 -6 -22 -52 -78 -152 -182 -53 -56 -101 -113 -108 -129 -6 -15 -16 -27
-22 -27 -17 0 -42 -107 -35 -150 17 -103 140 -209 242 -210 53 0 147 57 231
140 151 150 348 356 378 395 100 131 131 263 91 378 -73 205 -218 309 -444
320 -99 4 -118 17 -132 91 -6 29 -12 278 -13 573 -3 393 -7 526 -16 535 -7 7
-12 22 -12 34 0 38 -80 144 -130 172 l-45 26 -325 1 c-568 2 -1661 -14 -1720
-26 -71 -14 -379 -24 -452 -15 -92 12 -91 9 -91 187 0 85 3 163 7 175 12 40
40 43 393 44 418 1 508 12 631 74 28 14 59 26 67 26 9 0 31 11 48 24 18 13 52
34 77 46 24 13 90 68 145 124 148 150 205 253 286 526 7 23 12 302 14 790 3
691 5 806 16 813 2 1 18 12 36 25 18 12 38 22 46 22 7 0 17 4 23 9 5 5 52 25
105 44 102 38 157 67 197 104 14 13 33 23 42 23 26 0 108 69 255 215 104 103
148 157 216 260 81 122 101 164 178 370 68 184 80 304 81 843 0 278 -4 458
-10 482 -11 41 -54 100 -73 100 -6 0 -24 12 -40 28 l-28 27 -324 5 c-223 3
-328 9 -335 16 -14 14 7 54 94 182 31 46 56 88 56 92 0 5 13 23 29 40 16 18
44 59 62 92 19 33 45 74 59 92 14 17 41 57 60 88 19 32 44 70 57 84 13 15 23
32 23 39 0 7 9 20 21 31 11 10 48 63 82 116 34 54 74 117 89 141 41 62 88 159
88 180 0 40 -52 127 -98 165 -65 53 -170 124 -214 145 -21 10 -38 22 -38 28 0
6 -15 17 -32 25 -18 8 -51 25 -73 39 -53 32 -126 33 -176 2 -44 -28 -122 -115
-149 -167 -11 -22 -33 -54 -49 -72 -15 -18 -36 -46 -45 -63 -9 -16 -24 -42
-34 -56 -40 -61 -93 -142 -119 -180 -16 -23 -41 -63 -58 -89 -16 -26 -43 -65
-58 -86 -52 -71 -197 -297 -197 -307 0 -5 -10 -21 -22 -36 -35 -42 -54 -69
-121 -172 -34 -53 -80 -123 -102 -155 -21 -33 -46 -71 -55 -86 -8 -15 -51 -80
-94 -145 -114 -169 -122 -182 -148 -238 l-23 -50 2 -1050 c2 -577 4 -1419 5
-1871 l3 -820 -26 -40 c-16 -23 -51 -54 -90 -77 l-64 -37 -240 -3 c-410 -4
-402 -4 -433 27 l-27 26 0 824 0 823 29 41 c16 23 55 68 87 99 180 177 352
354 388 400 83 104 76 -62 79 1688 1 1006 6 1563 12 1569 6 6 10 18 10 28 0
19 12 21 95 20 22 0 83 -5 135 -11 134 -15 235 -13 274 3 48 20 108 83 135
141 20 42 22 59 16 110 -3 33 -8 74 -10 90 -7 64 -47 256 -60 288 -4 9 -11 17
-16 17 -8 0 -14 28 -6 31 1 0 40 4 87 9 47 4 103 12 124 18 58 16 163 72 180
96 8 11 39 47 70 79 31 32 56 62 56 67 0 5 14 17 32 26 24 12 63 16 172 18
172 1 202 13 259 101 50 77 52 138 6 190 -38 43 -105 89 -145 99 -16 4 -70 9
-120 11 -132 5 -172 18 -190 61 -23 55 -165 196 -233 233 -34 18 -95 38 -146
48 -74 14 -98 15 -170 5 -47 -7 -109 -22 -139 -33 -31 -12 -62 -19 -70 -16 -8
3 -18 23 -22 44 -10 53 -38 115 -59 133 -10 8 -36 37 -57 64 -33 42 -98 96
-115 96 -3 0 -21 13 -40 30 -37 33 -192 109 -263 130 -25 7 -64 19 -88 27 -52
16 -345 26 -417 13z m335 -105 c36 -4 79 -13 97 -21 17 -8 39 -14 49 -14 9 0
25 -6 33 -13 9 -7 41 -21 71 -31 30 -11 62 -27 71 -36 9 -9 31 -23 49 -30 18
-7 47 -26 64 -42 17 -15 36 -28 42 -28 9 0 75 -68 102 -105 53 -72 55 -99 12
-145 -28 -30 -34 -32 -81 -28 -50 5 -99 37 -99 64 0 7 -14 23 -30 36 -17 13
-50 40 -75 60 -24 20 -74 51 -110 69 -36 18 -68 36 -71 41 -3 4 -16 8 -28 8
-13 0 -41 7 -62 16 -58 24 -335 25 -383 1 -19 -9 -45 -17 -58 -17 -20 0 -71
-24 -175 -82 -65 -37 -207 -167 -208 -191 0 -5 -11 -23 -24 -40 -14 -18 -29
-43 -35 -57 -6 -14 -15 -32 -20 -40 -27 -47 -41 -80 -41 -95 0 -9 -6 -29 -14
-44 -19 -35 -29 -245 -16 -321 13 -82 37 -171 49 -183 6 -6 11 -17 11 -25 0
-7 14 -33 30 -57 17 -24 30 -46 30 -50 0 -19 156 -195 173 -195 5 0 26 -13 46
-28 55 -43 225 -122 262 -122 11 0 29 -5 41 -11 35 -19 374 -48 563 -49 154
-1 344 -16 436 -35 35 -8 53 15 44 57 -4 18 -11 38 -15 43 -5 6 -9 21 -9 35 0
14 -3 57 -7 96 l-6 70 33 28 c28 24 40 27 72 23 58 -8 80 -35 88 -110 13 -118
30 -221 38 -232 5 -5 12 -32 16 -59 l7 -49 -53 -53 c-50 -51 -56 -54 -102 -54
-26 0 -58 6 -70 12 -12 7 -71 16 -132 21 -60 4 -135 10 -165 12 -30 3 -83 6
-118 7 l-63 3 1 -1580 c0 -869 3 -1614 6 -1656 l5 -76 -296 -295 -296 -295 0
-928 c0 -521 5 -933 10 -938 12 -12 803 -9 815 3 6 6 19 10 31 10 54 0 175 94
201 156 8 18 19 36 25 40 14 8 1 3700 -13 3727 -10 20 5 70 29 97 34 38 73 94
79 113 4 12 13 29 20 37 29 30 74 93 74 102 0 5 5 14 10 21 25 29 61 85 75
115 8 17 19 32 23 32 4 0 18 19 30 43 34 65 70 117 117 168 8 9 15 19 15 23 0
12 72 126 80 126 3 0 14 15 24 33 33 61 169 271 346 533 15 23 31 51 35 63 3
11 10 21 15 21 9 0 70 86 70 99 0 4 20 35 45 69 25 34 45 65 45 70 0 5 11 19
25 32 14 13 25 30 25 37 0 24 51 83 71 83 10 0 26 -11 35 -25 9 -14 22 -25 29
-25 7 0 25 -12 40 -26 15 -14 37 -30 49 -35 30 -13 56 -30 94 -61 18 -16 39
-28 46 -28 7 0 21 -9 31 -20 10 -11 23 -20 29 -20 6 0 36 -17 66 -38 68 -47
75 -74 30 -117 -16 -16 -30 -33 -30 -38 0 -5 -12 -23 -26 -41 -21 -26 -73
-102 -119 -175 -6 -9 -42 -63 -80 -121 -38 -58 -74 -112 -80 -122 -5 -9 -41
-62 -80 -118 -38 -55 -78 -115 -87 -132 -9 -16 -25 -40 -35 -52 -30 -35 -63
-85 -63 -95 0 -6 -13 -26 -30 -44 -16 -19 -30 -37 -30 -41 0 -3 -21 -36 -47
-73 -102 -149 -114 -168 -111 -193 3 -22 8 -25 38 -24 19 1 206 4 415 7 209 3
387 8 395 11 8 3 28 -4 43 -16 l28 -23 -1 -485 c0 -394 -4 -500 -16 -565 -9
-44 -19 -102 -23 -130 -4 -27 -12 -60 -19 -72 -7 -12 -12 -36 -12 -54 0 -18
-13 -56 -30 -86 -16 -29 -30 -64 -30 -77 0 -14 -4 -28 -10 -31 -5 -3 -20 -28
-31 -56 -12 -27 -25 -49 -29 -49 -5 0 -12 -12 -18 -27 -5 -16 -28 -49 -51 -75
-22 -25 -41 -53 -41 -61 0 -15 -273 -287 -289 -287 -5 0 -24 -12 -41 -27 -34
-28 -68 -48 -137 -83 -23 -11 -45 -25 -48 -30 -3 -6 -13 -10 -22 -10 -9 0 -38
-13 -65 -30 -27 -17 -63 -30 -81 -30 -17 0 -40 -7 -50 -15 -11 -7 -38 -17 -60
-20 -51 -9 -97 -31 -97 -48 0 -6 -1 -393 -2 -858 -3 -765 -5 -849 -19 -865 -9
-11 -22 -44 -30 -74 -7 -30 -21 -66 -31 -79 -10 -13 -18 -34 -18 -46 0 -12 -7
-28 -16 -36 -8 -7 -31 -35 -49 -63 -62 -92 -166 -190 -244 -231 -17 -8 -31
-20 -31 -25 0 -6 -9 -10 -20 -10 -11 0 -45 -14 -75 -30 -30 -17 -68 -30 -84
-30 -16 0 -34 -6 -40 -14 -19 -22 -146 -29 -588 -30 l-412 -1 -6 -22 c-7 -30
-9 -582 -2 -589 3 -4 131 -6 285 -5 239 2 281 0 291 -13 11 -14 17 -12 49 13
l37 29 840 6 c462 3 908 9 991 12 83 4 162 4 177 0 36 -9 85 -52 107 -95 17
-35 18 -73 19 -691 1 -360 5 -657 9 -660 4 -3 75 -4 157 0 151 5 232 -3 257
-28 6 -6 17 -12 23 -12 31 -1 111 -99 144 -180 19 -44 22 -65 18 -110 -4 -31
-13 -70 -22 -86 -8 -16 -15 -34 -15 -40 0 -6 -27 -40 -59 -75 -115 -124 -456
-465 -483 -482 -38 -23 -72 -21 -117 8 -57 35 -71 60 -71 127 l0 57 245 248
c135 136 245 255 245 265 0 33 -31 37 -276 31 l-239 -5 -45 40 -45 40 -1 133
c-1 74 -4 154 -8 179 -3 25 -7 271 -10 548 l-3 503 -669 -2 c-368 -1 -698 -4
-734 -7 -36 -2 -107 -4 -157 -3 -70 1 -93 -1 -93 -11 -5 -168 3 -1235 9 -1252
13 -33 -8 -102 -44 -142 -42 -48 -96 -56 -350 -53 -266 2 -245 5 -245 -30 0
-23 14 -41 72 -92 39 -35 101 -93 137 -129 117 -115 576 -557 971 -934 255
-244 232 -226 290 -226 62 0 99 20 154 82 21 24 124 130 229 236 l191 192 57
0 c53 0 59 -3 91 -38 50 -55 64 -94 47 -134 -12 -31 -305 -338 -470 -493 -74
-69 -130 -104 -194 -120 -43 -11 -153 -10 -200 2 -99 26 -100 26 -385 299 -47
45 -97 93 -113 107 -15 13 -116 110 -224 213 -107 104 -217 209 -243 234 -26
25 -132 126 -235 225 -459 440 -445 423 -445 570 0 104 20 155 84 220 86 85
184 111 395 103 106 -4 133 -2 140 9 4 8 4 42 0 76 -4 34 -10 220 -12 413 -3
194 -8 357 -12 364 -5 7 -15 9 -29 4 -11 -5 -925 -12 -2031 -16 -1105 -4
-2289 -11 -2630 -15 -410 -5 -624 -5 -632 2 -9 7 -12 81 -13 275 -1 146 -1
270 0 275 0 7 102 9 292 7 233 -3 296 -1 308 10 14 12 15 126 8 1053 -4 572
-10 1254 -13 1515 l-5 474 -88 85 c-48 47 -183 179 -299 294 l-213 209 -5 386
c-9 628 -20 2986 -15 2998 4 9 579 13 2275 15 1933 3 2286 2 2378 -10 78 -11
110 -12 118 -4 8 8 0 17 -32 32 -23 12 -51 21 -61 21 -24 0 -189 68 -211 88
-10 8 -33 25 -52 36 -45 27 -215 195 -215 212 0 7 -7 17 -15 21 -23 13 -102
163 -125 238 -7 22 -18 56 -26 75 -18 49 -36 180 -35 260 1 89 23 217 53 305
32 94 83 206 98 215 5 3 13 15 17 26 9 25 203 234 216 234 5 0 26 13 46 28 47
36 224 122 251 122 12 0 31 5 43 12 51 28 244 39 417 23z m-59 -385 c10 -6 28
-10 41 -10 28 0 108 -29 129 -47 8 -7 25 -13 37 -13 12 0 22 -4 22 -9 0 -5 22
-23 49 -40 37 -22 64 -52 105 -115 65 -97 72 -138 32 -175 -42 -40 -156 -29
-156 14 0 16 -149 162 -186 182 -27 15 -70 26 -153 40 -19 3 -59 0 -90 -6 -57
-13 -141 -50 -141 -63 0 -5 -7 -8 -15 -8 -17 0 -105 -77 -105 -91 0 -5 -13
-30 -29 -56 -74 -123 -63 -284 31 -429 38 -60 147 -144 186 -144 10 0 23 -5
30 -12 19 -19 189 -24 226 -6 17 8 51 25 76 36 47 22 170 141 170 165 0 19 40
54 71 62 18 4 40 0 66 -14 44 -22 59 -58 46 -109 -14 -59 -108 -169 -194 -227
-24 -16 -46 -32 -49 -35 -9 -9 -74 -37 -128 -55 -43 -14 -78 -17 -190 -13 -75
2 -146 9 -157 15 -11 5 -51 25 -90 44 -91 43 -238 186 -267 259 -5 14 -16 39
-23 55 -36 81 -51 264 -28 345 40 143 73 201 162 291 98 97 197 153 291 165
30 4 62 11 70 16 18 10 135 1 161 -12z m1201 -114 c18 -7 47 -20 65 -27 44
-20 163 -129 163 -150 0 -10 4 -20 9 -24 5 -3 17 -27 26 -54 28 -84 29 -84
243 -85 183 -1 187 -1 211 -25 35 -35 40 -99 9 -132 -13 -14 -30 -28 -38 -31
-8 -3 -94 -2 -190 3 -96 5 -183 6 -193 3 -9 -3 -31 -33 -48 -66 -17 -34 -37
-68 -45 -75 -8 -8 -14 -19 -14 -24 0 -11 -37 -49 -48 -49 -5 0 -17 -9 -26 -19
-10 -11 -43 -32 -74 -48 -53 -26 -65 -28 -178 -28 -93 0 -128 4 -155 17 -19 9
-41 19 -49 22 -39 15 -147 109 -161 141 -5 11 -13 27 -18 35 -36 60 -46 108
-45 215 0 88 4 116 17 135 9 14 17 34 17 46 0 12 7 24 15 28 8 3 15 13 15 22
0 38 116 132 200 162 68 25 241 30 292 8z m-630 -96 c25 0 26 -2 18 -31 -16
-53 -34 -89 -47 -89 -7 0 -13 8 -13 19 0 10 -7 32 -15 47 -23 44 -20 68 8 60
12 -3 34 -6 49 -6z m-558 -106 c33 -15 76 -46 102 -74 24 -26 72 -67 106 -90
59 -40 64 -42 124 -38 52 3 68 9 100 36 60 50 62 52 73 52 5 0 12 -30 15 -67
18 -205 43 -266 162 -395 52 -57 94 -107 94 -113 0 -12 -64 -93 -85 -109 -13
-9 -34 -102 -35 -153 0 -7 -9 -22 -21 -34 -23 -23 5 -22 -406 -4 -150 7 -163
16 -80 55 28 13 58 30 65 37 7 7 18 13 24 13 32 0 219 183 239 234 6 17 20 49
30 72 36 76 22 128 -50 199 -49 47 -117 69 -165 52 -33 -11 -152 -104 -201
-158 -16 -18 -55 -43 -85 -57 -47 -21 -66 -23 -131 -20 -66 4 -85 10 -142 43
-49 29 -71 49 -88 82 -13 25 -30 54 -36 66 -7 13 -13 57 -13 102 0 67 4 86 25
120 13 22 30 54 38 71 11 24 33 41 88 68 95 46 168 49 253 10z"/>
<path d="M4280 10179 c-432 -3 -1331 -9 -1998 -13 -667 -3 -1217 -8 -1222 -11
-9 -5 -3 -2483 6 -2542 3 -18 8 -33 12 -33 4 0 118 -109 254 -242 135 -134
262 -258 282 -276 l36 -32 0 -953 c1 -1103 10 -2324 17 -2344 5 -12 155 -13
992 -7 542 4 1001 8 1019 9 17 1 250 2 517 3 l485 2 9 23 c4 12 2 384 -5 827
-7 443 -13 1030 -14 1305 -1 275 -5 631 -9 790 -4 175 -3 305 2 328 8 31 59
87 294 321 l284 283 -2 1274 c-1 828 -5 1278 -11 1287 -7 8 -36 11 -87 10 -42
-1 -429 -5 -861 -9z m777 -114 c26 -4 47 -13 52 -23 4 -9 11 -73 15 -142 9
-176 8 -2199 -2 -2232 -4 -16 -96 -117 -227 -250 -121 -123 -239 -248 -263
-279 -73 -97 -72 -85 -72 -709 1 -305 5 -715 10 -910 11 -410 14 -1627 5
-1651 -3 -9 -23 -19 -43 -23 -68 -12 -2705 -19 -2734 -8 -23 9 -27 18 -32 64
-4 29 -8 739 -10 1578 -3 1272 -6 1530 -17 1555 -29 62 -103 146 -314 355
-119 118 -226 230 -238 250 l-22 35 -3 1161 -4 1161 24 26 23 26 765 6 c421 3
1228 8 1794 10 566 3 1031 6 1032 8 5 5 217 -2 261 -8z"/>
<path d="M2509 9696 c-2 -2 -177 -6 -389 -9 -212 -4 -403 -10 -425 -13 -50 -9
-110 -56 -139 -109 -21 -40 -21 -40 -21 -875 l0 -835 27 -50 c30 -58 96 -112
147 -121 63 -12 2841 4 2886 17 27 7 56 28 91 65 43 46 53 63 58 104 11 80 6
1650 -5 1679 -18 45 -81 113 -124 132 -39 17 -95 18 -1071 19 -567 0 -1032 -1
-1035 -4z m2108 -102 c12 -3 24 -13 28 -21 3 -9 5 -405 5 -881 0 -724 -2 -868
-13 -880 -12 -11 -86 -14 -383 -17 -801 -7 -2597 -6 -2605 2 -4 4 -10 388 -12
853 -3 465 -8 854 -12 866 -4 13 0 28 13 44 l19 24 1449 3 c797 2 1456 6 1464
7 8 2 17 4 20 5 3 0 15 -2 27 -5z"/>
<path d="M2262 8982 c-10 -7 -13 -74 -14 -296 0 -158 2 -290 5 -293 10 -9
1771 -3 1781 7 11 11 10 570 -2 582 -7 7 -1170 6 -1412 -1 -30 0 -120 1 -200
4 -80 4 -151 2 -158 -3z m1586 -107 c85 -10 89 -19 84 -203 -4 -133 -5 -144
-25 -156 -18 -11 -157 -14 -757 -16 -404 -1 -745 -1 -757 -1 -17 1 -25 10 -32
39 -11 43 -9 281 2 299 14 23 80 32 216 32 73 0 135 1 136 3 7 7 1075 10 1133
3z"/>
<path d="M2414 7300 c-122 -5 -133 -7 -165 -31 -98 -77 -103 -98 -97 -400 4
-179 8 -230 20 -255 26 -49 102 -112 144 -120 53 -10 343 -10 437 0 67 7 83
12 114 39 19 17 46 49 60 70 24 38 24 41 24 275 0 130 0 249 -1 263 0 30 -76
121 -119 143 -31 16 -224 24 -417 16z m445 -114 c9 -6 11 -20 7 -49 -8 -49 -8
-403 -1 -455 5 -29 1 -43 -17 -65 l-23 -27 -279 -1 c-265 -1 -280 0 -287 17
-4 11 -7 123 -8 249 -1 127 -4 252 -7 279 -4 29 -3 51 4 55 16 9 595 7 611 -3z"/>
<path d="M3508 7300 c-37 -7 -84 -41 -128 -95 -25 -29 -25 -29 -28 -289 -3
-249 -2 -261 18 -287 11 -16 20 -32 20 -37 0 -4 15 -22 33 -40 56 -54 102 -62
352 -57 121 2 233 8 247 14 30 11 68 49 104 102 25 36 25 37 25 293 l1 258
-27 37 c-14 21 -45 54 -68 72 l-42 34 -235 1 c-129 0 -252 -2 -272 -6z m543
-107 c7 -7 11 -114 11 -287 l0 -276 -23 -20 c-23 -18 -40 -19 -289 -19 -236 0
-267 2 -285 17 -20 16 -21 27 -20 302 l0 284 23 6 c43 10 573 3 583 -7z"/>
<path d="M2350 6104 c-67 -8 -83 -15 -122 -56 -70 -73 -70 -71 -66 -346 l3
-247 30 -45 c17 -24 50 -58 74 -75 l43 -30 246 3 247 2 39 28 c22 15 54 49 73
76 l33 48 1 207 c1 267 1 269 -23 316 -54 106 -77 115 -336 119 -114 2 -223 2
-242 0z m242 -102 c149 1 252 -2 257 -7 6 -6 11 -126 12 -277 2 -215 -1 -271
-12 -288 -14 -20 -22 -21 -290 -22 -152 0 -282 3 -288 6 -15 10 -15 578 0 593
8 8 21 8 43 2 17 -6 142 -9 278 -7z"/>
<path d="M3524 6101 c-56 -8 -105 -45 -137 -102 -27 -47 -27 -47 -28 -271 0
-124 3 -238 7 -254 10 -40 59 -100 108 -132 l41 -27 245 0 245 0 40 26 c22 15
54 46 70 69 27 39 31 53 35 138 3 52 3 170 0 263 l-5 169 -44 51 c-66 77 -77
79 -323 77 -117 0 -231 -4 -254 -7z m521 -101 c15 -17 17 -46 19 -282 1 -229
-1 -265 -15 -281 -15 -16 -40 -18 -294 -19 l-278 -1 -18 24 c-9 13 -15 28 -12
33 3 5 5 122 5 261 -1 196 2 256 12 264 8 7 101 12 257 14 134 1 258 3 275 5
20 1 37 -5 49 -18z"/>
<path d="M6943 8512 c-7 -7 -13 -16 -13 -20 0 -4 -1 -250 -1 -547 l-1 -540 40
-3 c29 -2 47 3 68 20 16 13 56 42 88 63 77 52 246 218 246 243 0 6 10 23 23
39 32 39 77 128 77 154 0 11 11 49 25 84 25 61 25 67 23 291 l-3 228 -279 0
c-219 1 -282 -2 -293 -12z m450 -111 c20 -20 22 -293 2 -363 -23 -85 -70 -193
-99 -231 -14 -19 -26 -37 -26 -41 0 -12 -104 -126 -116 -126 -5 0 -25 -11 -43
-25 -26 -19 -38 -22 -52 -14 -18 9 -19 28 -19 357 1 320 6 422 24 440 20 20
309 23 329 3z"/>
<path d="M5776 3568 c-3 -13 -6 -70 -6 -128 0 -109 6 -150 21 -150 5 0 9 68 9
150 0 138 -9 184 -24 128z"/>
<path d="M6525 12002 c-98 -42 -119 -61 -157 -146 -33 -71 -19 -145 45 -228
83 -110 247 -117 344 -16 60 63 92 189 58 234 -8 10 -15 26 -15 35 0 20 -93
109 -113 109 -8 0 -28 7 -43 15 -37 19 -69 18 -119 -3z m144 -147 c40 -46 42
-95 6 -148 -58 -84 -177 -48 -198 60 -5 24 -1 43 15 69 24 41 46 52 104 53 36
1 47 -4 73 -34z"/>
<path d="M6847 3286 c-52 -23 -130 -109 -172 -190 -29 -58 -52 -87 -85 -111
-90 -66 -147 -155 -187 -290 -22 -75 -12 -213 21 -295 25 -60 92 -171 109
-178 16 -8 5 -35 -24 -60 -17 -14 -53 -52 -79 -84 -41 -48 -50 -66 -55 -113
-9 -69 13 -168 52 -234 34 -58 117 -139 161 -158 19 -8 57 -39 85 -70 29 -30
69 -73 90 -93 20 -21 37 -43 37 -48 0 -16 101 -52 147 -52 24 0 58 7 76 16 43
22 123 108 157 169 17 32 40 58 66 72 94 53 188 173 230 294 34 98 34 238 -1
346 -14 42 -31 84 -39 92 -39 46 -86 124 -86 144 0 12 16 47 35 77 47 73 58
112 52 179 -9 101 -54 177 -183 307 -63 63 -114 122 -114 130 0 9 -28 45 -61
80 -44 45 -71 65 -93 68 -83 13 -113 13 -139 2z m133 -101 c59 -30 90 -89 90
-172 0 -41 1 -42 38 -49 74 -14 168 -98 212 -189 28 -59 29 -150 1 -195 -22
-37 -80 -70 -123 -70 -60 0 -123 61 -134 130 -9 58 -39 69 -158 59 -81 -6 -92
-9 -109 -34 -17 -23 -23 -68 -18 -144 1 -5 13 -23 27 -40 l26 -31 129 0 c130
0 140 -2 237 -49 35 -17 142 -119 142 -135 0 -5 6 -17 14 -25 24 -28 46 -127
46 -211 0 -134 -38 -231 -121 -311 -45 -43 -110 -79 -143 -79 -35 0 -53 -29
-59 -95 -5 -56 -9 -63 -52 -103 -56 -50 -95 -55 -155 -17 -49 31 -63 56 -70
125 l-5 54 -60 18 c-33 10 -76 26 -95 36 -133 66 -218 269 -150 360 26 36 86
72 118 72 29 0 84 -30 109 -59 13 -15 22 -40 23 -59 0 -21 9 -42 25 -57 23
-24 31 -25 136 -25 124 0 185 13 201 44 12 22 14 152 3 187 -13 40 -120 65
-164 37 -15 -9 -30 -8 -71 5 -29 9 -63 17 -77 17 -54 0 -210 112 -236 170 -4
8 -11 22 -15 30 -39 70 -42 84 -42 200 0 82 4 127 14 147 8 15 23 45 33 67 30
63 161 166 211 166 14 0 16 9 13 66 -3 44 23 106 55 136 52 47 94 53 154 23z"/>
</g>
</svg>
